<?xml version="1.0" ?><svg viewBox="0 0 128 128" xmlns="http://www.w3.org/2000/svg"><defs><style>.cls-1{fill:#333;}.cls-2{fill:#b3b3b3;}.cls-3{fill:#ccc;}.cls-4{fill:#999;}.cls-5{fill:#e6e6e6;}.cls-6{fill:#4d91bb;}.cls-7{fill:#7aaccc;}.cls-8{fill:#2175aa;}.cls-9{fill:#add65c;}.cls-10{fill:#c2e085;}.cls-11{fill:#9c3;}</style></defs><title/><g data-name="34 Globe" id="_34_Globe"><path class="cls-1" d="M90.65,75.86c-58.1-58.1-55.35-54.67-54.31-55.72s-2.5-3.91,55.72,54.31A1,1,0,0,1,90.65,75.86Z"/><rect class="cls-2" height="11.94" width="6" x="61.2" y="86.4"/><polygon class="cls-3" points="61.49 98.05 61.49 86.4 61.2 86.4 61.2 98.34 67.2 98.34 67.2 98.05 61.49 98.05"/><path class="cls-4" d="M61.2,86.4v1.87c5.28,1.74,4.47-.13,4.47,10.07H67.2V86.4Z"/><path class="cls-3" d="M81.27,112a17.07,17.07,0,1,0-34.13,0Z"/><path class="cls-5" d="M64.73,95a17,17,0,0,0-17.6,17H48.2A17.05,17.05,0,0,1,64.73,95Z"/><path class="cls-2" d="M71.86,96.77a15.54,15.54,0,0,1,6,8.53,3.5,3.5,0,0,1-3.08,4.44L47.13,112H81.27A17.05,17.05,0,0,0,71.86,96.77Z"/><path class="cls-3" d="M64.2,88.38c-35.79,0-54-43.52-28.57-68.95a2,2,0,0,1,2.83,2.83A36.16,36.16,0,0,0,27.8,48c0,32.1,39.1,48.77,62.14,25.74a2,2,0,0,1,2.83,2.83A40.28,40.28,0,0,1,64.2,88.38Z"/><path class="cls-5" d="M65.2,84.4c17.13,0,25.09-10.77,26.65-11.18a2,2,0,0,0-1.91.51C77.84,85.83,62,84.4,65.2,84.4Z"/><path class="cls-5" d="M36.63,19.43a2,2,0,0,1,.91-.51,2,2,0,0,0-1.91.51C10.09,45,28.59,88.82,64.7,88.37,29.2,87.93,11.35,44.72,36.63,19.43Z"/><path class="cls-2" d="M37.46,21.26a36.36,36.36,0,0,0,.51,52,36.36,36.36,0,0,1,.49-51,2,2,0,0,0-.6-3.23A2,2,0,0,1,37.46,21.26Z"/><path class="cls-2" d="M92.17,73.33a2,2,0,0,1-.4,2.23,40.43,40.43,0,0,1-56.62.49,40.42,40.42,0,0,0,57.62.51A2,2,0,0,0,92.17,73.33Z"/><circle class="cls-6" cx="64.2" cy="48" r="32"/><path class="cls-7" d="M50.62,66.84c-14.75-12-8.36-37.79,10-41.43A40,40,0,0,0,50.62,66.84Z"/><path class="cls-7" d="M32.81,48.61C32.81,20.25,67,6.1,87.13,25.69,67.18,5.19,32.2,19.33,32.2,48a31.9,31.9,0,0,0,9.69,22.93A31.89,31.89,0,0,1,32.81,48.61Z"/><path class="cls-8" d="M76.86,18.61a32,32,0,0,1-29,56.91C69,88.09,96.2,72.9,96.2,48A32,32,0,0,0,76.86,18.61Z"/><path class="cls-9" d="M47.53,56.87,60.73,60a4.5,4.5,0,0,1,3.47,4.38V80a32,32,0,0,1-32-32h7.37a4.5,4.5,0,0,1,4.5,4.5A4.5,4.5,0,0,0,47.53,56.87Zm4-38.27,1.28,4.94a4.12,4.12,0,0,0,3.93,3,4.06,4.06,0,0,1,3.86,2.81l2.67,8.21a4.06,4.06,0,0,0,3.86,2.81c7.92,0,10-.57,11.45,2.18,3.8,7.27,4.32,9.59,7.47,9.59h9.85C99.17,27.31,74.08,8.89,51.55,18.6Z"/><path class="cls-10" d="M60.64,25.41a20.34,20.34,0,0,0-3.85,1.18,4,4,0,0,1,2.11.62C59.46,26.59,60,26,60.64,25.41Z"/><path class="cls-10" d="M50.62,66.84a39,39,0,0,1-2-9.71l-1.11-.26a4.5,4.5,0,0,1-3.47-4.38,4.47,4.47,0,0,0-1.6-3.41A22.77,22.77,0,0,0,50.62,66.84Z"/><path class="cls-10" d="M51.55,18.6l.21.8a32,32,0,0,1,35.37,6.29C78.12,16.68,65.15,13.16,51.55,18.6Z"/><path class="cls-10" d="M41.88,70.93A31.83,31.83,0,0,1,32.83,48H32.2A32,32,0,0,0,41.88,70.93Z"/><path class="cls-11" d="M76.86,18.61A32,32,0,0,1,92,52.19h4C98.28,34.17,84.81,21.26,76.86,18.61Z"/><path class="cls-11" d="M60.53,78.13a31.89,31.89,0,0,1-12.66-2.61A32,32,0,0,0,64.2,80V77.91A32.29,32.29,0,0,1,60.53,78.13Z"/></g></svg>