<?xml version="1.0" ?><svg viewBox="0 0 64 64" xmlns="http://www.w3.org/2000/svg"><title/><g data-name="Day 9" id="47b9bfdd-02d1-4c6b-b059-3ca6e285983d"><polygon data-name="&lt;Path&gt;" fill="#9270ef" id="c0fc72d2-6ccc-4040-8db0-48d50dfce642" points="28.43 55.18 28.47 55.29 28.43 55.3 24.94 58.73 20.29 56.38 20.29 56.35 23.78 51.69 28.43 55.18"/><polygon data-name="&lt;Path&gt;" fill="#9270ef" id="5b923df7-b250-4530-8af6-2842ec1762fa" points="14.47 31.92 12.14 44.71 8.65 58.67 8.08 59.42 4 56.35 12.14 35.41 14.47 31.92"/><polygon data-name="&lt;Path&gt;" fill="#1daeef" id="64f77a4c-546a-4d86-a583-cbf5a49c09d1" points="22.61 16.8 23.61 18.79 21.45 29.59 19.12 38.9 20.29 45.88 20.34 45.92 8.65 58.67 12.14 44.71 14.47 31.92 17.96 19.12 22.61 16.8"/><polygon data-name="&lt;Path&gt;" fill="#9270ef" id="29cfb713-99f6-4e20-9bfd-6ca805c52a11" points="8.65 58.67 20.34 45.92 21.45 44.71 30.76 40.06 27.27 47.04 26.71 47.78 23.78 51.69 20.29 56.35 20.29 56.38 8.65 59.85 8.08 59.42 8.65 58.67"/><polygon data-name="&lt;Path&gt;" fill="#1daeef" id="976605e8-14d6-42fa-a269-43f53827f676" points="43.55 43.55 52.86 30.76 52.89 30.44 56 30.73 56 37.73 45.88 44 43.55 44 43.43 43.58 43.55 43.55"/><polygon data-name="&lt;Path&gt;" fill="#1d8def" id="8fd97cce-a6e3-4c9c-8a34-bf3692032c21" points="57.98 20.39 56 29.59 56 30.73 52.89 30.44 43.55 29.59 42.75 29.05 47.04 22.61 57.51 20.29 57.98 20.39"/><polygon data-name="&lt;Path&gt;" fill="#1daeef" id="1b38071f-1caa-497e-b27c-eb33d683e353" points="52.89 30.44 52.86 30.76 43.55 43.55 43.43 43.58 33.54 47.03 25 50 26.71 47.78 27.27 47.04 30.76 40.06 31 39.5 31.78 37.67 31.92 37.73 42.39 29.59 42.75 29.05 43.55 29.59 48.73 30.06 52.89 30.44"/><polygon data-name="&lt;Path&gt;" fill="#1daeef" id="b2446333-0f21-4571-ad61-f548cd73846d" points="43.43 43.58 43.55 44 38.9 51.92 28.47 55.29 28.43 55.18 23.78 51.69 26.71 47.78 27.27 48.2 43.43 43.58"/><polygon data-name="&lt;Path&gt;" fill="#1daeef" id="df2ccdc3-6d03-4495-8bb4-da52b8b213f1" points="34.24 19.12 27.27 30.76 29.59 38.9 31 39.5 30.76 40.06 21.45 44.71 20.34 45.92 20.29 45.88 19.12 38.9 21.45 29.59 23.61 18.79 23.78 19.12 27 12.68 27.27 12.14 30.76 14.47 35.41 8.65 34.24 19.12"/><polygon data-name="&lt;Path&gt;" fill="#1d7eef" id="3457052d-5378-42f7-a1a2-d041b2e87a13" points="57.51 20.29 47.04 22.61 42.75 29.05 42.39 29.59 31.92 37.73 31.78 37.67 37.73 23.78 42.39 20.29 42.71 19.81 43 20 58 13 58.13 13.07 58 13.31 58 20.29 57.98 20.39 57.51 20.29"/><polygon data-name="&lt;Path&gt;" fill="#1d5def" id="b3aa436a-1023-4ecc-ac9e-be0833ac1993" points="61.24 7.49 58.13 13.07 58 13 43 20 42.71 19.81 52 6 52.18 5.28 61.24 7.49"/><polygon data-name="&lt;Path&gt;" fill="#1e83ef" id="5e7d43c6-1d61-4276-8d4c-f768c14d2039" points="27 17 21 45 19.12 38.9 21.45 29.59 23.61 18.79 23.78 19.12 27 12.68 29 13 27 17"/><polygon data-name="&lt;Path&gt;" fill="#925aef" id="8fc9a4c6-f030-4892-addf-98e533d5ac14" points="14 53 9 59 15 58 14 56 14 53"/><polygon data-name="&lt;Path&gt;" fill="#1e83ef" id="d192811a-f048-4be9-9518-d64e4c420f5f" points="23 18 21 18 16 44 15 52 21 46 19 36 23 18"/><polygon data-name="&lt;Path&gt;" fill="#1d41ef" id="cdb47c78-af4c-40ac-b19c-0eef81b9fb18" points="52.18 5.28 52 6 42.71 19.81 42.39 20.29 39.17 22.7 39.06 22.79 37.73 23.78 31.78 37.67 31 39.5 29.59 38.9 27.27 30.76 34.24 19.12 35.41 8.65 43.22 6.98 48.85 5.77 51.69 5.16 52.18 5.28"/><polygon data-name="&lt;Path&gt;" fill="#1d5def" id="4e77c950-d26b-4fc3-8b78-d16c2dcc1f33" points="47 6 40 23 39 23 37 24 41 7 47 6"/><polygon data-name="&lt;Path&gt;" fill="#1d5def" id="1e517659-6331-4cc0-ae42-19adce7a8dca" points="35 19 34 31 32 37 31 24 35 19"/><polygon data-name="&lt;Path&gt;" fill="none" id="fabfdde0-71e6-4a1d-bc17-0786568fe44d" points="8.08 59.42 4 56.35 12.14 35.41 14.47 31.92 17.96 19.12 22.61 16.8 23.61 18.79 23.78 19.12 27.27 12.14 30.76 14.47 35 8 51.69 5.16 52.18 5.28 61.24 7.49 58.13 13.07 58 13.31 58 20.29 57.98 20.39 56 29.59 56 30.73 56 37.73 45.88 44 43.55 44 38.9 51.92 28.47 55.29 28.43 55.3 24.94 58.73 20.29 56.38 10 60 8.08 59.42" stroke="#001c63" stroke-linecap="round" stroke-linejoin="round" stroke-width="2"/><polygon data-name="&lt;Path&gt;" fill="#1d7eef" id="54ecf0b3-9162-4096-8dcd-593240941ca2" points="52 31 54 31 56 31 44.08 42 52 31"/><polygon data-name="&lt;Path&gt;" fill="#1d7eef" id="2d4a7f57-91e0-432f-89fd-e15f08961f53" points="52.89 30.44 52.86 30.76 43.55 43.55 43.43 43.58 33.54 47.03 27.27 47.04 34 44 43 41 48.73 30.06 52.89 30.44"/><polyline data-name="&lt;Path&gt;" fill="none" id="7f0e4c7e-9f10-4e5b-ae11-d4028b8ef95f" points="57.51 20.29 47.04 22.61 42.75 29.05 42.39 29.59 31.92 37.73" stroke="#001c63" stroke-linecap="round" stroke-linejoin="round" stroke-width="2.33"/><polyline data-name="&lt;Path&gt;" fill="none" id="5769b83a-3731-4862-993a-969755430bd3" points="56 31 56 30.73 52.89 30.44 43.55 29.59" stroke="#001c63" stroke-linecap="round" stroke-linejoin="round" stroke-width="2.33"/><polyline data-name="&lt;Path&gt;" fill="none" id="483512a0-242a-43bd-a4d6-d3bc13550d6a" points="23.78 17.96 23.61 18.79 21.45 29.59 19.12 38.9 20.29 45.88" stroke="#001c63" stroke-linecap="round" stroke-linejoin="round" stroke-width="2.33"/><polygon data-name="&lt;Path&gt;" fill="#1d41ef" id="46ffc1df-6d26-4587-bb7b-e00da7d04566" points="24 43 21 46 25 46 19 56 28 47 30 41 24 43"/><polyline data-name="&lt;Path&gt;" fill="none" id="b7e58fd1-b084-47e0-9a64-6aeab4cf3453" points="20.29 56.35 23.78 51.69 26.71 47.78 27.27 47.04 30.76 40.06" stroke="#001c63" stroke-linecap="round" stroke-linejoin="round" stroke-width="2.33"/><line data-name="&lt;Path&gt;" fill="none" id="ceeb9709-c7d2-404b-b6e2-3ec3c44f0cca" stroke="#001c63" stroke-linecap="round" stroke-linejoin="round" stroke-width="2.33" x1="28.43" x2="23.78" y1="55.18" y2="51.69"/><polyline data-name="&lt;Path&gt;" fill="none" id="5388b636-4813-4d26-bd8a-0ad13ff9d2cd" points="14.47 31.92 12.14 44.71 8.65 58.67 20.34 45.92 21.45 44.71 30.76 40.06 31 39.5 31.78 37.67 37.73 23.78 42.39 20.29 42.71 19.81 52 6" stroke="#001c63" stroke-linecap="round" stroke-linejoin="round" stroke-width="2.33"/><polyline data-name="&lt;Path&gt;" fill="none" id="c3421338-2ea7-4c2f-b119-4f88fbe46d84" points="27.27 48.2 43.43 43.58 43.55 43.55 52.86 30.76" stroke="#001c63" stroke-linecap="round" stroke-linejoin="round" stroke-width="2.33"/><polyline data-name="&lt;Path&gt;" fill="none" id="b71f4fe0-1f8b-4ce3-9365-167711078aea" points="35.41 8.65 34.24 19.12 27.27 30.76 29.59 38.9" stroke="#001c63" stroke-linecap="round" stroke-linejoin="round" stroke-width="2.33"/><line data-name="&lt;Path&gt;" fill="none" id="c19b9b8a-c7af-4d51-9101-f7eaf593c552" stroke="#001c63" stroke-linecap="round" stroke-linejoin="round" stroke-width="2.33" x1="43" x2="58" y1="20" y2="13"/><line data-name="&lt;Path&gt;" fill="none" id="821d04ff-247e-4356-9fee-24ee76a5c2b9" stroke="#fff" stroke-linecap="round" stroke-linejoin="round" stroke-width="2" x1="27" x2="26" y1="22" y2="26.33"/><line data-name="&lt;Path&gt;" fill="none" id="af1632c9-adee-478f-a488-4091a03703c9" stroke="#fff" stroke-linecap="round" stroke-linejoin="round" stroke-width="2" x1="46" x2="45" y1="33" y2="35"/><circle cx="34" cy="40" data-name="&lt;Path&gt;" fill="#fff" id="a4d4ebcf-2334-42ef-947c-ecf21d8b96ee" r="1"/><circle cx="25" cy="29" data-name="&lt;Path&gt;" fill="#fff" id="6bd974dc-d30f-4c0f-b0db-bdcb32196e6b" r="1"/></g></svg>